<?xml version="1.0" standalone="no"?>
<!DOCTYPE svg PUBLIC "-//W3C//DTD SVG 20010904//EN"
 "http://www.w3.org/TR/2001/REC-SVG-20010904/DTD/svg10.dtd">
<svg version="1.0" xmlns="http://www.w3.org/2000/svg"
 width="162.000000pt" height="81.000000pt" viewBox="0 0 162.000000 81.000000"
 preserveAspectRatio="xMidYMid meet">

<g transform="translate(0.000000,81.000000) scale(0.100000,-0.100000)"
fill="#000000" stroke="none">
<path d="M845 791 c-22 -10 -50 -29 -61 -42 -79 -87 -270 -436 -319 -582 -31
-95 -32 -131 -3 -151 31 -22 46 -20 90 10 40 28 142 153 133 163 -3 3 -41 -33
-84 -79 -44 -47 -83 -81 -87 -77 -12 12 27 117 100 272 57 120 68 135 99 149
55 23 144 83 199 134 88 82 112 162 62 201 -33 26 -76 26 -129 2z m112 -27
c10 -26 -14 -87 -52 -131 -34 -40 -176 -143 -197 -143 -12 0 62 139 108 203
53 72 126 110 141 71z"/>
<path d="M415 596 c-79 -25 -166 -77 -220 -132 -46 -47 -55 -62 -55 -92 0 -22
8 -44 20 -57 l19 -20 -54 -42 c-57 -45 -112 -112 -121 -149 -10 -38 17 -77 63
-94 38 -13 48 -12 100 4 95 30 243 128 243 162 0 25 -24 15 -95 -37 -124 -92
-212 -121 -235 -79 -15 28 9 81 51 113 19 14 82 49 142 78 59 29 107 56 107
60 0 21 -43 31 -85 20 -118 -30 -136 -1 -49 79 49 44 194 130 194 115 0 -3
-19 -26 -42 -51 -30 -32 -38 -48 -30 -56 20 -20 66 3 120 58 40 41 52 61 52
84 0 24 -6 33 -26 40 -32 13 -49 12 -99 -4z"/>
<path d="M1249 591 c-20 -16 -22 -23 -13 -38 16 -27 59 -39 78 -23 22 17 20
57 -3 70 -27 14 -35 13 -62 -9z"/>
<path d="M782 423 c24 -25 26 -32 18 -73 -5 -25 -24 -82 -44 -127 -58 -136
-60 -191 -6 -213 59 -25 124 13 191 112 101 149 150 328 90 328 -15 0 -26 -21
-51 -95 -18 -52 -50 -125 -71 -162 -39 -72 -104 -153 -121 -153 -15 0 1 56 44
155 25 55 42 112 45 147 5 51 3 59 -20 82 -19 19 -37 26 -63 26 l-38 0 26 -27z"/>
<path d="M1180 424 c0 -28 -35 -103 -102 -217 -35 -61 -68 -137 -68 -158 0
-15 43 -49 62 -49 14 0 16 6 12 28 -4 21 8 49 57 127 107 172 130 242 93 279
-25 26 -54 20 -54 -10z"/>
<path d="M1366 438 c-2 -7 -7 -29 -10 -48 -4 -19 -34 -92 -67 -162 -64 -133
-82 -203 -58 -219 25 -16 34 -10 63 44 33 59 116 172 175 238 l39 44 11 -27
c13 -36 45 -52 71 -38 24 13 26 30 5 30 -21 0 -19 23 5 62 11 18 20 45 20 61
0 22 -4 27 -25 27 -18 0 -49 -22 -104 -75 l-78 -75 10 43 c7 33 6 51 -4 73
-15 31 -46 44 -53 22z m-15 -175 c-12 -20 -14 -14 -5 12 4 9 9 14 11 11 3 -2
0 -13 -6 -23z"/>
</g>
</svg>
